<svg xmlns="http://www.w3.org/2000/svg" xmlns:xlink="http://www.w3.org/1999/xlink" width="69" height="62"><defs><path id="a" d="M127.07 47.695c6.45 2.08 10.274 8.223 8.539 13.72l-12.848 40.703c-1.735 5.496-8.371 8.266-14.823 6.185-6.451-2.08-10.274-8.223-8.539-13.72l12.848-40.702c1.735-5.497 8.371-8.267 14.822-6.186zm18.43 18.228c4.193 1.352 6.677 5.344 5.55 8.916l-8.35 26.453c-1.128 3.572-5.44 5.372-9.633 4.02-4.193-1.352-6.678-5.345-5.55-8.917l8.35-26.453c1.127-3.572 5.44-5.372 9.633-4.02zM101.247 53.01c4.193 1.351 6.677 5.344 5.55 8.916l-8.35 26.452c-1.128 3.573-5.44 5.373-9.633 4.02-4.193-1.351-6.677-5.344-5.55-8.916l8.35-26.453c1.127-3.572 5.44-5.372 9.633-4.02z"/></defs><use fill="#fff" xlink:href="#a" transform="translate(-83 -47)"/></svg>