<svg xmlns="http://www.w3.org/2000/svg" xmlns:xlink="http://www.w3.org/1999/xlink" width="66" height="75" viewBox="0 0 66 75"><defs><path id="cs7ia" d="M670.994 3041.882c-2.261 2.259-5.778 2.537-8.351.802l-.176.035a46.048 46.048 0 0 0-17.401 7.424l1.056 1.056a6.58 6.58 0 0 1 0 9.317l-1.554 1.553 4.663 4.658a6.59 6.59 0 1 1-9.326 9.318l-10.882-10.87-1.554 1.552a6.596 6.596 0 0 1-9.327 0l-6.218-6.211a6.58 6.58 0 0 1 0-9.317l11.408-11.397a45.957 45.957 0 0 0 12.625-23.566l.035-.173c-1.707-2.514-1.508-6.036.803-8.345a6.608 6.608 0 0 1 9.327 0l24.872 24.846a6.591 6.591 0 0 1 0 9.318zm-35.753 10.87l-9.327-9.318-10.88 10.87a2.193 2.193 0 0 0 0 3.106l6.217 6.212c.859.858 2.25.858 3.109 0l10.881-10.87zm0 6.211l-3.109 3.106 10.881 10.87a2.197 2.197 0 0 0 3.109-3.106zm6.218 0l1.554-1.553c.86-.858.86-2.247 0-3.105l-1.452-1.451c-1.561 1.332-2.55 2.343-3.211 3.003zm17.37-19.916l-19.196-19.178a50.277 50.277 0 0 1-10.703 20.366l9.513 9.504a50.36 50.36 0 0 1 20.387-10.692zm9.056-3.377l-24.872-24.847a2.2 2.2 0 0 0-3.109 0 2.193 2.193 0 0 0 0 3.106l24.872 24.846a2.198 2.198 0 0 0 3.109-3.105zm-40.416 18.634l-3.11 3.106a2.2 2.2 0 0 1-3.108 0 2.195 2.195 0 0 1 0-3.106l3.109-3.106a2.2 2.2 0 0 1 3.109 0 2.194 2.194 0 0 1 0 3.106zm30.948-49.113v4.392a2.197 2.197 0 0 1-2.198 2.196 2.197 2.197 0 0 1-2.198-2.196v-4.392a2.197 2.197 0 0 1 4.396 0zm17.587 17.568a2.197 2.197 0 0 1-2.198 2.196h-4.397a2.197 2.197 0 1 1 0-4.392h4.397c1.214 0 2.198.984 2.198 2.196zm-5.04-11.624l-4.397 4.393a2.2 2.2 0 0 1-3.11 0 2.194 2.194 0 0 1 0-3.106l4.398-4.392a2.2 2.2 0 0 1 3.108 0 2.194 2.194 0 0 1 0 3.105z"/><linearGradient id="cs7ib" x1="643" x2="642.99" y1="3077.98" y2="3002.99" gradientUnits="userSpaceOnUse"><stop offset="0" stop-color="#dd164c"/><stop offset="1" stop-color="#5d0aa8"/></linearGradient></defs><g><g transform="translate(-610 -3003)"><use xlink:href="#cs7ia"/><use fill="url(#cs7ib)" xlink:href="#cs7ia"/></g></g></svg>