<svg xmlns="http://www.w3.org/2000/svg" xmlns:xlink="http://www.w3.org/1999/xlink" width="128" height="20" viewBox="0 0 128 20"><defs><path id="iyeaa" d="M462.5 5983l3.46 6.285 7.039 1.354-4.9 5.239.89 7.122-6.49-3.049-6.488 3.048.89-7.121-4.9-5.239 7.038-1.354 3.46-6.285m27 0l3.461 6.285 7.039 1.354-4.9 5.239.89 7.122-6.49-3.049-6.488 3.048.89-7.121-4.9-5.239 7.038-1.354 3.46-6.285m27 0l3.461 6.285 7.039 1.354-4.9 5.239.89 7.122-6.49-3.049-6.488 3.048.89-7.121-4.9-5.239 7.038-1.354 3.46-6.285m26.001 0l3.46 6.285 7.039 1.354-4.9 5.239.89 7.122-6.489-3.049-6.489 3.048.89-7.121-4.9-5.239 7.038-1.354L542.5 5983m27 0l3.46 6.285 7.039 1.354-4.9 5.239.89 7.122-6.489-3.049-6.489 3.048.89-7.121-4.9-5.239 7.038-1.354L569.5 5983"/></defs><g><g transform="translate(-452 -5983)"><use fill="#f42267" xlink:href="#iyeaa"/></g></g></svg>